<svg viewBox="0 0 24 24" fill="none" xmlns="http://www.w3.org/2000/svg">
  <!-- Book Path -->
  <path d="M2 3h6a4 4 0 0 1 4 4v14a3 3 0 0 0-3-3H2V3z" stroke="#1d4ed8" fill="#fde68a" stroke-width="2" stroke-linecap="round" stroke-linejoin="round"></path>
  <path d="M22 3h-6a4 4 0 0 0-4 4v14a3 3 0 0 1 3-3h7V3z" stroke="#1d4ed8" fill="#fde68a" stroke-width="2" stroke-linecap="round" stroke-linejoin="round"></path>
  <!-- Tilted Graduation Cap -->
  <g transform="rotate(-15 12 11)">
    <!-- Cap top -->
    <path d="M4 10l8-4 8 4-8 4-8-4z" stroke="#0f172a" fill="#475569" stroke-width="2" stroke-linecap="round" stroke-linejoin="round"></path>
    <!-- Cap body -->
    <path d="M8 12v4c2 2 6 2 8 0v-4" stroke="#0f172a" fill="#475569" stroke-width="2" stroke-linecap="round" stroke-linejoin="round"></path>
    <!-- Tassel -->
    <path d="M17.5 10V8" stroke="#0f172a" stroke-width="2" stroke-linecap="round" stroke-linejoin="round"></path>
  </g>
</svg>