<svg viewBox="0 0 24 24" fill="none" xmlns="http://www.w3.org/2000/svg">
  <path d="M2 3h6a4 4 0 0 1 4 4v14a3 3 0 0 0-3-3H2V3z" stroke="#1d4ed8" stroke-width="2.5" stroke-linecap="round" stroke-linejoin="round" fill="#93c5fd"></path>
  <path d="M22 3h-6a4 4 0 0 0-4 4v14a3 3 0 0 1 3-3h7V3z" stroke="#1d4ed8" stroke-width="2.5" stroke-linecap="round" stroke-linejoin="round" fill="#93c5fd"></path>
  <g transform="translate(0.5, 0.5) scale(0.35)">
    <path d="M2 10l10-5 10 5-10 5z" fill="#1d4ed8" stroke="#1d4ed8" stroke-width="6" stroke-linecap="round" stroke-linejoin="round"></path>
    <path d="M6 12v5c3 3 9 3 12 0v-5" fill="none" stroke="#1d4ed8" stroke-width="6" stroke-linecap="round" stroke-linejoin="round"></path>
    <path d="M18 10V7" stroke="#1d4ed8" stroke-width="6" stroke-linecap="round" stroke-linejoin="round"></path>
  </g>
</svg>